<svg width="12" height="12" viewBox="0 0 12 12" fill="none" xmlns="http://www.w3.org/2000/svg">
<path fill-rule="evenodd" clip-rule="evenodd" d="M12 6C12 9.31371 9.31371 12 6 12C2.68629 12 0 9.31371 0 6C0 2.68629 2.68629 0 6 0C9.31371 0 12 2.68629 12 6ZM3.46043 3.46043C3.57433 3.34652 3.759 3.34652 3.87291 3.46043L6 5.58752L8.1271 3.46043C8.241 3.34652 8.42567 3.34652 8.53957 3.46043C8.65348 3.57433 8.65348 3.759 8.53957 3.87291L6.41248 6L8.53957 8.1271C8.65348 8.241 8.65348 8.42567 8.53957 8.53957C8.42567 8.65348 8.241 8.65348 8.1271 8.53957L6 6.41248L3.87291 8.53957C3.759 8.65348 3.57433 8.65348 3.46043 8.53957C3.34652 8.42567 3.34652 8.241 3.46043 8.1271L5.58752 6L3.46043 3.87291C3.34652 3.759 3.34652 3.57433 3.46043 3.46043Z" fill="#9A9EB3"/>
</svg>
