<svg width="24" height="24" viewBox="0 0 24 24" fill="none" xmlns="http://www.w3.org/2000/svg">
<path fill-rule="evenodd" clip-rule="evenodd" d="M2 6.85714C2 6.38376 2.38376 6 2.85714 6L20.5714 6C21.0448 6 21.4286 6.38376 21.4286 6.85714C21.4286 7.33053 21.0448 7.71429 20.5714 7.71429L2.85714 7.71429C2.38376 7.71429 2 7.33053 2 6.85714Z" fill="#12131A"/>
<path fill-rule="evenodd" clip-rule="evenodd" d="M2 11.9997C2 11.5263 2.38376 11.1426 2.85714 11.1426L20.5714 11.1426C21.0448 11.1426 21.4286 11.5263 21.4286 11.9997C21.4286 12.4731 21.0448 12.8569 20.5714 12.8569L2.85714 12.8569C2.38376 12.8569 2 12.4731 2 11.9997Z" fill="#12131A"/>
<path fill-rule="evenodd" clip-rule="evenodd" d="M2 17.1423C2 16.6689 2.38376 16.2852 2.85714 16.2852L20.5714 16.2852C21.0448 16.2852 21.4286 16.6689 21.4286 17.1423C21.4286 17.6157 21.0448 17.9994 20.5714 17.9994L2.85714 17.9994C2.38376 17.9994 2 17.6157 2 17.1423Z" fill="#12131A"/>
</svg>
