<svg xmlns="http://www.w3.org/2000/svg" width="48" height="48" viewBox="0 0 48 48" fill="none">
  <path d="M19.1662 26.7465C24.3105 26.7465 28.4808 22.5762 28.4808 17.4318C28.4808 12.2875 24.3105 8.11719 19.1662 8.11719C14.0219 8.11719 9.85156 12.2875 9.85156 17.4318C9.85156 22.5762 14.0219 26.7465 19.1662 26.7465Z" stroke="#142452" stroke-width="2" stroke-linecap="round" stroke-linejoin="round"/>
  <path d="M33.3429 27.0048C36.8287 25.5846 39.2857 22.1622 39.2857 18.166C39.2857 13.4227 35.8241 9.48782 31.2891 8.75" stroke="#142452" stroke-width="2" stroke-linecap="round" stroke-linejoin="round"/>
  <path d="M6.44828 39.8815C6.22862 38.6169 6.31935 37.3063 6.31935 36.0289C6.31935 31.2151 10.2218 27.3125 15.0357 27.3125H23.5232C28.3372 27.3125 32.2396 31.2151 32.2396 36.0289C32.2396 37.3063 32.3304 38.6169 32.1108 39.8815" stroke="#142452" stroke-width="2" stroke-linecap="round" stroke-linejoin="round"/>
  <path d="M14 27.5L18.2444 33.0178C18.633 33.523 19.3888 33.5406 19.8005 33.054L24.5 27.5" stroke="#142452" stroke-width="2"/>
  <path d="M33.3555 27.0078C38.2861 27.0078 42.2831 31.0048 42.2831 35.9354C42.2831 37.2436 42.3761 38.586 42.1511 39.8812" stroke="#142452" stroke-width="2" stroke-linecap="round" stroke-linejoin="round"/>
</svg>