<svg width="21" height="32" viewBox="0 0 21 32" fill="none" xmlns="http://www.w3.org/2000/svg">
<path d="M7.20329 12.9569C7.37453 12.9531 7.53815 12.8853 7.6617 12.7666L10.2043 10.172L12.747 12.7666C12.87 12.8812 13.0326 12.9436 13.2006 12.9406C13.3687 12.9376 13.529 12.8696 13.6479 12.7507C13.7667 12.6319 13.8348 12.4716 13.8378 12.3035C13.8408 12.1355 13.7784 11.9728 13.6638 11.8499L10.6628 8.83151C10.539 8.7141 10.3749 8.64865 10.2043 8.64865C10.0338 8.64865 9.86968 8.7141 9.74594 8.83151L6.74489 11.8499C6.62342 11.9715 6.55517 12.1363 6.55517 12.3082C6.55517 12.4801 6.62342 12.645 6.74489 12.7666C6.86843 12.8853 7.03205 12.9531 7.20329 12.9569Z" fill="#142452"/>
<path d="M10.5527 24.1828C10.3808 24.1826 10.2159 24.1141 10.0943 23.9925L7.09328 20.9827C6.9787 20.8598 6.91633 20.6971 6.91929 20.5291C6.92226 20.3611 6.99037 20.2007 7.10922 20.0819C7.22806 19.963 7.38839 19.895 7.55643 19.892C7.72448 19.889 7.88712 19.9514 8.01008 20.066L10.5527 22.6606L13.0954 20.066C13.2183 19.9514 13.381 19.889 13.549 19.892C13.7171 19.895 13.8774 19.963 13.9962 20.0819C14.1151 20.2007 14.1832 20.3611 14.1862 20.5291C14.1891 20.6971 14.1268 20.8598 14.0122 20.9827L11.0111 24.0011C10.8882 24.1196 10.7235 24.1849 10.5527 24.1828Z" fill="#142452"/>
</svg>
