<svg width="24" height="24" viewBox="0 0 24 24" fill="none" xmlns="http://www.w3.org/2000/svg">
<path d="M7.16705 15.3329L7.16708 15.3328C8.21501 14.9814 9.66898 14.8599 11.2658 14.8599C11.3873 14.8599 11.4858 14.7614 11.4858 14.6399C11.4858 14.5184 11.3873 14.4199 11.2658 14.4199C9.65969 14.4199 8.14598 14.5405 7.02712 14.9157L7.16705 15.3329ZM7.16705 15.3329C6.64424 15.5082 6.23889 15.7355 5.9662 16.0189L7.16705 15.3329ZM7.02075 19.2171C6.46099 19.0269 5.98473 18.7675 5.64649 18.4133L5.96617 16.0189C5.69867 16.2968 5.55084 16.6362 5.55084 17.0628C5.55084 17.4896 5.69808 17.83 5.9647 18.1094L5.96473 18.1094C6.23643 18.394 6.64047 18.6232 7.16225 18.8004C8.2081 19.1557 9.66183 19.2814 11.2658 19.2814C11.3874 19.2814 11.4858 19.3798 11.4858 19.5014C11.4858 19.6229 11.3873 19.7214 11.2658 19.7214C9.65184 19.7214 8.13795 19.5967 7.02075 19.2171Z" fill="#142452" stroke="white"/>
<mask id="path-2-inside-1_4986_16981" fill="white">
<path fill-rule="evenodd" clip-rule="evenodd" d="M15.9849 13.6944C16.0592 13.6781 16.1819 13.6533 16.3021 13.6533C16.4221 13.6533 16.5447 13.6781 16.619 13.6944C16.7103 13.7144 16.8126 13.7413 16.9173 13.7711C17.1277 13.8313 17.3748 13.9115 17.6142 13.9958C17.8531 14.08 18.0949 14.1722 18.2935 14.2574C18.392 14.2996 18.4886 14.3438 18.5725 14.3878C18.6301 14.418 18.7669 14.49 18.8757 14.5994C18.9924 14.7165 19.0959 14.8669 19.1505 15.078C19.192 15.2387 19.1967 15.4088 19.1978 15.5501C19.1987 15.672 19.1958 15.8283 19.1922 16.019C19.1914 16.067 19.1904 16.1173 19.1895 16.1696C19.1849 16.4363 19.18 16.7782 19.18 17.2229C19.18 18.4508 18.4353 19.2542 17.8019 19.7103C17.4808 19.9416 17.1643 20.1029 16.9303 20.2064C16.8123 20.2585 16.7125 20.2971 16.6402 20.3234C16.6039 20.3366 16.5742 20.3466 16.5523 20.3539L16.5253 20.3626L16.5165 20.3654L16.5133 20.3664L16.5119 20.3668C16.5116 20.3669 16.5108 20.3672 16.3021 19.6781C16.0934 20.3672 16.0932 20.3671 16.0929 20.367L16.0909 20.3664L16.0877 20.3654L16.0788 20.3626L16.0518 20.3539C16.0299 20.3466 16.0003 20.3366 15.964 20.3234C15.8916 20.2971 15.7919 20.2585 15.6738 20.2064C15.4399 20.1029 15.1234 19.9416 14.8023 19.7103C14.1689 19.2542 13.4242 18.4508 13.4242 17.2229C13.4242 16.778 13.4193 16.4359 13.4147 16.1691C13.4137 16.1167 13.4128 16.0665 13.4119 16.0185C13.4084 15.8277 13.4055 15.6713 13.4064 15.5494C13.4074 15.4083 13.4122 15.238 13.4537 15.0773C13.5085 14.8657 13.6125 14.7153 13.7296 14.5982C13.8383 14.4895 13.9747 14.4179 14.0321 14.3878C14.1158 14.344 14.2124 14.2999 14.3108 14.2576C14.5093 14.1726 14.7509 14.0805 14.9898 13.9962C15.2293 13.9118 15.4763 13.8315 15.6866 13.7713C15.7913 13.7414 15.8936 13.7145 15.9849 13.6944ZM16.3021 19.6781L16.0929 20.367C16.2289 20.4082 16.3747 20.4084 16.5108 20.3672L16.3021 19.6781ZM16.3021 18.9092C16.3168 18.903 16.3323 18.8963 16.3482 18.8893C16.5188 18.8139 16.7418 18.6992 16.9602 18.5419C17.4059 18.2209 17.74 17.7967 17.74 17.2229C17.74 16.7671 17.745 16.4162 17.7497 16.1445C17.7508 16.0856 17.7517 16.0311 17.7527 15.9808C17.7558 15.8141 17.758 15.6915 17.7579 15.5946C17.7476 15.5901 17.7369 15.5855 17.7257 15.5807C17.5654 15.5119 17.3553 15.4314 17.1354 15.354C16.9162 15.2766 16.6976 15.206 16.5217 15.1557C16.4333 15.1305 16.3622 15.1122 16.3108 15.101C16.3077 15.1003 16.3048 15.0997 16.3021 15.0991C16.2995 15.0997 16.2966 15.1003 16.2936 15.101C16.2421 15.1122 16.1711 15.1305 16.0827 15.1558C15.9068 15.2061 15.6882 15.2768 15.4689 15.3542C15.249 15.4317 15.0388 15.5123 14.8783 15.5811C14.8672 15.5859 14.8566 15.5905 14.8462 15.595C14.8462 15.6917 14.8484 15.814 14.8515 15.9803C14.8524 16.0307 14.8534 16.0851 14.8544 16.144C14.8592 16.4158 14.8642 16.7669 14.8642 17.2229C14.8642 17.7967 15.1983 18.2209 15.6439 18.5419C15.8624 18.6992 16.0854 18.8139 16.256 18.8893C16.2719 18.8963 16.2873 18.903 16.3021 18.9092Z"/>
</mask>
<path fill-rule="evenodd" clip-rule="evenodd" d="M15.9849 13.6944C16.0592 13.6781 16.1819 13.6533 16.3021 13.6533C16.4221 13.6533 16.5447 13.6781 16.619 13.6944C16.7103 13.7144 16.8126 13.7413 16.9173 13.7711C17.1277 13.8313 17.3748 13.9115 17.6142 13.9958C17.8531 14.08 18.0949 14.1722 18.2935 14.2574C18.392 14.2996 18.4886 14.3438 18.5725 14.3878C18.6301 14.418 18.7669 14.49 18.8757 14.5994C18.9924 14.7165 19.0959 14.8669 19.1505 15.078C19.192 15.2387 19.1967 15.4088 19.1978 15.5501C19.1987 15.672 19.1958 15.8283 19.1922 16.019C19.1914 16.067 19.1904 16.1173 19.1895 16.1696C19.1849 16.4363 19.18 16.7782 19.18 17.2229C19.18 18.4508 18.4353 19.2542 17.8019 19.7103C17.4808 19.9416 17.1643 20.1029 16.9303 20.2064C16.8123 20.2585 16.7125 20.2971 16.6402 20.3234C16.6039 20.3366 16.5742 20.3466 16.5523 20.3539L16.5253 20.3626L16.5165 20.3654L16.5133 20.3664L16.5119 20.3668C16.5116 20.3669 16.5108 20.3672 16.3021 19.6781C16.0934 20.3672 16.0932 20.3671 16.0929 20.367L16.0909 20.3664L16.0877 20.3654L16.0788 20.3626L16.0518 20.3539C16.0299 20.3466 16.0003 20.3366 15.964 20.3234C15.8916 20.2971 15.7919 20.2585 15.6738 20.2064C15.4399 20.1029 15.1234 19.9416 14.8023 19.7103C14.1689 19.2542 13.4242 18.4508 13.4242 17.2229C13.4242 16.778 13.4193 16.4359 13.4147 16.1691C13.4137 16.1167 13.4128 16.0665 13.4119 16.0185C13.4084 15.8277 13.4055 15.6713 13.4064 15.5494C13.4074 15.4083 13.4122 15.238 13.4537 15.0773C13.5085 14.8657 13.6125 14.7153 13.7296 14.5982C13.8383 14.4895 13.9747 14.4179 14.0321 14.3878C14.1158 14.344 14.2124 14.2999 14.3108 14.2576C14.5093 14.1726 14.7509 14.0805 14.9898 13.9962C15.2293 13.9118 15.4763 13.8315 15.6866 13.7713C15.7913 13.7414 15.8936 13.7145 15.9849 13.6944ZM16.3021 19.6781L16.0929 20.367C16.2289 20.4082 16.3747 20.4084 16.5108 20.3672L16.3021 19.6781ZM16.3021 18.9092C16.3168 18.903 16.3323 18.8963 16.3482 18.8893C16.5188 18.8139 16.7418 18.6992 16.9602 18.5419C17.4059 18.2209 17.74 17.7967 17.74 17.2229C17.74 16.7671 17.745 16.4162 17.7497 16.1445C17.7508 16.0856 17.7517 16.0311 17.7527 15.9808C17.7558 15.8141 17.758 15.6915 17.7579 15.5946C17.7476 15.5901 17.7369 15.5855 17.7257 15.5807C17.5654 15.5119 17.3553 15.4314 17.1354 15.354C16.9162 15.2766 16.6976 15.206 16.5217 15.1557C16.4333 15.1305 16.3622 15.1122 16.3108 15.101C16.3077 15.1003 16.3048 15.0997 16.3021 15.0991C16.2995 15.0997 16.2966 15.1003 16.2936 15.101C16.2421 15.1122 16.1711 15.1305 16.0827 15.1558C15.9068 15.2061 15.6882 15.2768 15.4689 15.3542C15.249 15.4317 15.0388 15.5123 14.8783 15.5811C14.8672 15.5859 14.8566 15.5905 14.8462 15.595C14.8462 15.6917 14.8484 15.814 14.8515 15.9803C14.8524 16.0307 14.8534 16.0851 14.8544 16.144C14.8592 16.4158 14.8642 16.7669 14.8642 17.2229C14.8642 17.7967 15.1983 18.2209 15.6439 18.5419C15.8624 18.6992 16.0854 18.8139 16.256 18.8893C16.2719 18.8963 16.2873 18.903 16.3021 18.9092Z" fill="#142452"/>
<path d="M15.9849 13.6944L15.7703 12.7177L15.7702 12.7177L15.9849 13.6944ZM16.619 13.6944L16.4045 14.6711L16.4054 14.6713L16.619 13.6944ZM16.9173 13.7711L17.1923 12.8097L17.1915 12.8094L16.9173 13.7711ZM17.6142 13.9958L17.2818 14.939L17.2819 14.939L17.6142 13.9958ZM18.2935 14.2574L17.8993 15.1764L17.8993 15.1764L18.2935 14.2574ZM18.5725 14.3878L19.0368 13.5021L19.0367 13.5021L18.5725 14.3878ZM18.8757 14.5994L18.1667 15.3046L18.1672 15.3051L18.8757 14.5994ZM19.1505 15.078L18.1822 15.3281L18.1823 15.3284L19.1505 15.078ZM19.1978 15.5501L20.1978 15.543L20.1978 15.5426L19.1978 15.5501ZM19.1922 16.019L18.1924 16.0003L18.1924 16.001L19.1922 16.019ZM19.1895 16.1696L20.1894 16.1869L20.1894 16.1861L19.1895 16.1696ZM17.8019 19.7103L17.2174 18.8989L17.2173 18.899L17.8019 19.7103ZM16.9303 20.2064L17.3344 21.1211L17.3347 21.121L16.9303 20.2064ZM16.6402 20.3234L16.9809 21.2636L16.9817 21.2633L16.6402 20.3234ZM16.5523 20.3539L16.8574 21.3063L16.8686 21.3026L16.5523 20.3539ZM16.5253 20.3626L16.2203 19.4102L16.2153 19.4119L16.5253 20.3626ZM16.5165 20.3654L16.7985 21.3249L16.8126 21.3207L16.8266 21.3162L16.5165 20.3654ZM16.5133 20.3664L16.7883 21.3279L16.7952 21.3258L16.5133 20.3664ZM16.5119 20.3668L16.2368 19.4054L16.2161 19.4113L16.1957 19.4181L16.5119 20.3668ZM16.3021 19.6781L17.2591 19.3882L16.3033 16.2323L15.3452 19.3875L16.3021 19.6781ZM16.0909 20.3664L16.3788 19.4087L16.3729 19.407L16.0909 20.3664ZM16.0877 20.3654L15.7807 21.3172L15.7931 21.3212L15.8057 21.3249L16.0877 20.3654ZM16.0788 20.3626L16.3858 19.4109L16.3838 19.4102L16.0788 20.3626ZM16.0518 20.3539L15.7355 21.3027L15.7467 21.3063L16.0518 20.3539ZM15.964 20.3234L15.6229 21.2634L15.6233 21.2636L15.964 20.3234ZM15.6738 20.2064L15.2693 21.1209L15.27 21.1212L15.6738 20.2064ZM14.8023 19.7103L15.3869 18.899L15.3868 18.8989L14.8023 19.7103ZM13.4147 16.1691L14.4145 16.1518L14.4145 16.1508L13.4147 16.1691ZM13.4119 16.0185L12.412 16.0366L12.4121 16.0385L13.4119 16.0185ZM13.4064 15.5494L14.4064 15.5565L14.4064 15.5562L13.4064 15.5494ZM13.4537 15.0773L12.4857 14.8265L12.4856 14.8269L13.4537 15.0773ZM14.0321 14.3878L13.5687 13.5017L13.5684 13.5018L14.0321 14.3878ZM14.3108 14.2576L13.9168 13.3385L13.9164 13.3387L14.3108 14.2576ZM14.9898 13.9962L15.3225 14.9393L15.3226 14.9393L14.9898 13.9962ZM15.6866 13.7713L15.4116 12.8098L15.4115 12.8099L15.6866 13.7713ZM16.5108 20.3672L16.8005 21.3243L17.7577 21.0345L17.4678 20.0773L16.5108 20.3672ZM16.3021 18.9092L15.9132 19.8305L16.3021 19.9946L16.6909 19.8305L16.3021 18.9092ZM16.3482 18.8893L16.7508 19.8047L16.7523 19.804L16.3482 18.8893ZM16.9602 18.5419L17.5445 19.3535L17.5447 19.3533L16.9602 18.5419ZM17.7497 16.1445L16.7499 16.1266L16.7499 16.1272L17.7497 16.1445ZM17.7527 15.9808L18.7525 15.9999L18.7525 15.9993L17.7527 15.9808ZM17.7579 15.5946L18.7579 15.5936L18.7572 14.9414L18.1601 14.6791L17.7579 15.5946ZM17.7257 15.5807L18.1216 14.6624L18.1202 14.6618L17.7257 15.5807ZM17.1354 15.354L16.8027 16.297L16.8031 16.2971L17.1354 15.354ZM16.5217 15.1557L16.7967 14.1943L16.7963 14.1942L16.5217 15.1557ZM16.3108 15.101L16.0971 16.0779L16.0975 16.078L16.3108 15.101ZM16.3021 15.0991L16.5117 14.1213L16.3021 14.0764L16.0926 14.1213L16.3021 15.0991ZM16.2936 15.101L16.5069 16.078L16.5139 16.0764L16.2936 15.101ZM16.0827 15.1558L16.3577 16.1173L16.3582 16.1171L16.0827 15.1558ZM15.4689 15.3542L15.1362 14.4111L15.1361 14.4111L15.4689 15.3542ZM14.8783 15.5811L14.4842 14.662L14.4796 14.664L14.8783 15.5811ZM14.8462 15.595L14.4472 14.6781L13.8462 14.9396V15.595H14.8462ZM14.8515 15.9803L15.8513 15.9631L15.8513 15.9618L14.8515 15.9803ZM14.8544 16.144L13.8545 16.1603L13.8545 16.1617L14.8544 16.144ZM15.6439 18.5419L15.0593 19.3533L15.0597 19.3536L15.6439 18.5419ZM16.256 18.8893L15.8519 19.804L15.8534 19.8047L16.256 18.8893ZM16.1994 14.6711C16.2278 14.6649 16.2519 14.6601 16.2743 14.6567C16.2984 14.6531 16.307 14.6533 16.3021 14.6533V12.6533C16.0655 12.6533 15.8522 12.6997 15.7703 12.7177L16.1994 14.6711ZM16.3021 14.6533C16.297 14.6533 16.3055 14.6531 16.3296 14.6567C16.352 14.6601 16.376 14.6649 16.4045 14.6711L16.8336 12.7177C16.7519 12.6998 16.5385 12.6533 16.3021 12.6533V14.6533ZM16.4054 14.6713C16.4687 14.6852 16.5491 14.706 16.6432 14.7328L17.1915 12.8094C17.076 12.7765 16.952 12.7436 16.8327 12.7175L16.4054 14.6713ZM16.6423 14.7326C16.829 14.7859 17.0563 14.8595 17.2818 14.939L17.9466 13.0527C17.6932 12.9634 17.4265 12.8767 17.1923 12.8097L16.6423 14.7326ZM17.2819 14.939C17.5072 15.0184 17.7272 15.1026 17.8993 15.1764L18.6877 13.3383C18.4627 13.2418 18.199 13.1417 17.9465 13.0527L17.2819 14.939ZM17.8993 15.1764C17.9859 15.2135 18.0565 15.2464 18.1084 15.2736L19.0367 13.5021C18.9208 13.4413 18.7981 13.3857 18.6876 13.3383L17.8993 15.1764ZM18.1083 15.2735C18.1328 15.2864 18.148 15.2947 18.1631 15.3044C18.1702 15.309 18.1744 15.3121 18.1761 15.3134C18.1779 15.3148 18.1742 15.3121 18.1667 15.3046L19.5847 13.8942C19.3564 13.6646 19.0942 13.5322 19.0368 13.5021L18.1083 15.2735ZM18.1672 15.3051C18.1784 15.3164 18.1805 15.3205 18.1795 15.3189C18.1792 15.3184 18.1791 15.3181 18.1793 15.3186C18.1795 15.3191 18.1807 15.3219 18.1822 15.3281L20.1187 14.8279C20.0119 14.4144 19.8025 14.1129 19.5843 13.8937L18.1672 15.3051ZM18.1823 15.3284C18.1845 15.3369 18.1891 15.3596 18.1926 15.402C18.196 15.4447 18.1973 15.493 18.1978 15.5576L20.1978 15.5426C20.1967 15.399 20.194 15.119 20.1186 14.8275L18.1823 15.3284ZM18.1978 15.5572C18.1986 15.6633 18.196 15.8048 18.1924 16.0003L20.1921 16.0376C20.1955 15.8518 20.1987 15.6807 20.1978 15.543L18.1978 15.5572ZM18.1924 16.001C18.1916 16.0475 18.1906 16.0998 18.1897 16.1531L20.1894 16.1861C20.1903 16.1347 20.1912 16.0865 20.1921 16.0369L18.1924 16.001ZM18.1897 16.1523C18.185 16.4223 18.18 16.7704 18.18 17.2229H20.18C20.18 16.786 20.1848 16.4502 20.1894 16.1869L18.1897 16.1523ZM18.18 17.2229C18.18 17.9948 17.7226 18.5351 17.2174 18.8989L18.3863 20.5218C19.148 19.9732 20.18 18.9069 20.18 17.2229H18.18ZM17.2173 18.899C16.9677 19.0788 16.7161 19.2077 16.5259 19.2918L17.3347 21.121C17.6125 20.9981 17.9939 20.8044 18.3864 20.5217L17.2173 18.899ZM16.5261 19.2917C16.4317 19.3334 16.3531 19.3637 16.2986 19.3835L16.9817 21.2633C17.072 21.2305 17.1929 21.1836 17.3344 21.1211L16.5261 19.2917ZM16.2994 19.3832C16.2736 19.3926 16.2525 19.3998 16.2361 19.4052L16.8686 21.3026C16.8959 21.2935 16.9342 21.2805 16.9809 21.2636L16.2994 19.3832ZM16.2473 19.4016L16.2203 19.4102L16.8304 21.3149L16.8574 21.3063L16.2473 19.4016ZM16.2153 19.4119L16.2064 19.4147L16.8266 21.3162L16.8354 21.3133L16.2153 19.4119ZM16.2346 19.406L16.2313 19.407L16.7952 21.3258L16.7985 21.3249L16.2346 19.406ZM16.2382 19.405L16.2368 19.4054L16.787 21.3282L16.7883 21.3278L16.2382 19.405ZM16.1957 19.4181C16.1771 19.4243 16.409 19.3305 16.6948 19.3837C16.9869 19.438 17.1669 19.6028 17.2438 19.6854C17.3203 19.7676 17.3648 19.8438 17.381 19.8721C17.4013 19.9079 17.4152 19.9375 17.4222 19.9529C17.4362 19.9837 17.4455 20.0084 17.4483 20.0159C17.4522 20.0266 17.4552 20.035 17.4566 20.0391C17.4611 20.0522 17.464 20.0615 17.4621 20.0554C17.4601 20.0491 17.4545 20.0313 17.4413 19.9882C17.4155 19.9037 17.3635 19.7327 17.2591 19.3882L15.345 19.968C15.4494 20.3125 15.5021 20.486 15.5289 20.5736C15.5421 20.6165 15.5498 20.6417 15.5546 20.6569C15.5561 20.6615 15.5607 20.6761 15.5661 20.6919C15.5678 20.6967 15.5709 20.7056 15.575 20.7166C15.578 20.7244 15.5873 20.7494 15.6014 20.7804C15.6084 20.7959 15.6223 20.8255 15.6427 20.8613C15.6589 20.8897 15.7034 20.966 15.78 21.0482C15.8569 21.1308 16.0368 21.2956 16.329 21.3499C16.6148 21.4031 16.8467 21.3093 16.8281 21.3155L16.1957 19.4181ZM15.3449 19.3883C15.2406 19.733 15.1886 19.9046 15.1626 19.99C15.1494 20.0334 15.1436 20.0525 15.1411 20.0605C15.139 20.0671 15.1411 20.0603 15.1443 20.0506C15.1454 20.0474 15.1477 20.0404 15.1509 20.0315C15.153 20.0256 15.1608 20.0036 15.1725 19.9761C15.1783 19.9625 15.1902 19.935 15.2078 19.9015C15.2212 19.8761 15.2614 19.801 15.3316 19.7185C15.3992 19.6393 15.5776 19.4544 15.8844 19.389C16.037 19.3564 16.1708 19.365 16.2694 19.3827C16.3155 19.391 16.3522 19.4009 16.3746 19.4075C16.3832 19.4101 16.3962 19.4141 16.4005 19.4155C16.4048 19.4169 16.4091 19.4183 16.4091 19.4183L15.7766 21.3157C15.7766 21.3157 15.7809 21.3171 15.7852 21.3185C15.7895 21.3199 15.8025 21.3239 15.8112 21.3265C15.8335 21.333 15.8702 21.343 15.9163 21.3513C16.0149 21.369 16.1487 21.3776 16.3014 21.345C16.6082 21.2796 16.7866 21.0947 16.8542 21.0154C16.9245 20.9329 16.9646 20.8578 16.978 20.8324C16.9957 20.7988 17.0077 20.7713 17.0135 20.7575C17.0252 20.7299 17.0331 20.7077 17.0354 20.7014C17.0387 20.6921 17.0412 20.6846 17.0424 20.6808C17.0466 20.6683 17.0503 20.6562 17.0516 20.6521C17.0558 20.6386 17.0631 20.6147 17.0761 20.5719C17.1025 20.4851 17.1549 20.3123 17.2592 19.9678L15.3449 19.3883ZM16.3807 19.4093L16.3788 19.4087L15.8031 21.3241L15.805 21.3247L16.3807 19.4093ZM16.3729 19.407L16.3696 19.406L15.8057 21.3249L15.809 21.3258L16.3729 19.407ZM16.3947 19.4137L16.3858 19.4109L15.7717 21.3143L15.7807 21.3172L16.3947 19.4137ZM16.3838 19.4102L16.3568 19.4016L15.7467 21.3063L15.7737 21.3149L16.3838 19.4102ZM16.368 19.4052C16.3523 19.4 16.3312 19.3928 16.3048 19.3832L15.6233 21.2636C15.6695 21.2803 15.7075 21.2932 15.7356 21.3026L16.368 19.4052ZM16.3052 19.3834C16.2511 19.3638 16.1726 19.3335 16.0777 19.2916L15.27 21.1212C15.4112 21.1835 15.532 21.2304 15.6229 21.2634L16.3052 19.3834ZM16.0784 19.2919C15.8881 19.2077 15.6365 19.0788 15.3869 18.899L14.2178 20.5217C14.6103 20.8044 14.9917 20.9981 15.2693 21.1209L16.0784 19.2919ZM15.3868 18.8989C14.8816 18.5351 14.4242 17.9948 14.4242 17.2229H12.4242C12.4242 18.9069 13.4562 19.9732 14.2179 20.5218L15.3868 18.8989ZM14.4242 17.2229C14.4242 16.7702 14.4192 16.4219 14.4145 16.1518L12.4148 16.1864C12.4194 16.4498 12.4242 16.7858 12.4242 17.2229H14.4242ZM14.4145 16.1508C14.4136 16.0999 14.4127 16.0476 14.4117 15.9985L12.4121 16.0385C12.413 16.0854 12.4138 16.1335 12.4148 16.1874L14.4145 16.1508ZM14.4117 16.0004C14.4082 15.8043 14.4056 15.6628 14.4064 15.5565L12.4064 15.5423C12.4055 15.6799 12.4087 15.8511 12.412 16.0366L14.4117 16.0004ZM14.4064 15.5562C14.4068 15.4923 14.4081 15.4441 14.4116 15.4016C14.415 15.3591 14.4196 15.3364 14.4219 15.3277L12.4856 14.8269C12.4102 15.1183 12.4074 15.3981 12.4064 15.5426L14.4064 15.5562ZM14.4218 15.3281C14.4234 15.3219 14.4246 15.319 14.4248 15.3185C14.425 15.3181 14.4249 15.3184 14.4245 15.3189C14.4235 15.3206 14.4255 15.3165 14.4367 15.3053L13.0225 13.891C12.8032 14.1104 12.593 14.4122 12.4857 14.8265L14.4218 15.3281ZM14.4367 15.3053C14.4293 15.3127 14.4256 15.3153 14.4275 15.3139C14.4292 15.3126 14.4334 15.3095 14.4406 15.3049C14.4558 15.2951 14.4711 15.2868 14.4959 15.2738L13.5684 13.5018C13.5117 13.5315 13.2503 13.6632 13.0225 13.891L14.4367 15.3053ZM14.4955 15.274C14.5475 15.2468 14.6183 15.2139 14.7053 15.1766L13.9164 13.3387C13.8065 13.3859 13.6842 13.4413 13.5687 13.5017L14.4955 15.274ZM14.7048 15.1768C14.8769 15.103 15.0968 15.0189 15.3225 14.9393L14.6572 13.0532C14.405 13.1422 14.1416 13.2422 13.9168 13.3385L14.7048 15.1768ZM15.3226 14.9393C15.548 14.8597 15.7753 14.7861 15.9617 14.7327L15.4115 12.8099C15.1772 12.8769 14.9105 12.9638 14.6571 13.0532L15.3226 14.9393ZM15.9616 14.7328C16.0549 14.7061 16.1356 14.6851 16.1995 14.6711L15.7702 12.7177C15.6515 12.7438 15.5277 12.7766 15.4116 12.8098L15.9616 14.7328ZM15.3452 19.3875L15.136 20.0764L17.0497 20.6575L17.2589 19.9686L15.3452 19.3875ZM15.8031 21.3241C16.1272 21.4222 16.4746 21.4229 16.8005 21.3243L16.221 19.4101C16.2748 19.3938 16.3306 19.3941 16.3826 19.4099L15.8031 21.3241ZM17.4678 20.0773L17.2591 19.3882L15.345 19.968L15.5537 20.657L17.4678 20.0773ZM16.6909 19.8305C16.7122 19.8215 16.7327 19.8126 16.7508 19.8047L15.9457 17.9739C15.9318 17.9799 15.9215 17.9844 15.9132 17.9879L16.6909 19.8305ZM16.7523 19.804C16.9673 19.709 17.255 19.5619 17.5445 19.3535L16.3759 17.7304C16.2286 17.8365 16.0704 17.9188 15.9441 17.9745L16.7523 19.804ZM17.5447 19.3533C18.1247 18.9355 18.74 18.2475 18.74 17.2229H16.74C16.74 17.3028 16.7202 17.3674 16.6746 17.4387C16.6226 17.5201 16.5297 17.6196 16.3757 17.7305L17.5447 19.3533ZM18.74 17.2229C18.74 16.7748 18.7449 16.4301 18.7496 16.1618L16.7499 16.1272C16.7451 16.4023 16.74 16.7594 16.74 17.2229H18.74ZM18.7496 16.1624C18.7506 16.103 18.7516 16.0495 18.7525 15.9999L16.7529 15.9618C16.7519 16.0128 16.7509 16.0681 16.7499 16.1266L18.7496 16.1624ZM18.7525 15.9993C18.7555 15.8361 18.758 15.7024 18.7579 15.5936L16.7579 15.5956C16.758 15.6806 16.756 15.7921 16.7529 15.9624L18.7525 15.9993ZM18.1601 14.6791C18.1456 14.6727 18.1299 14.666 18.1216 14.6624L17.3299 16.499C17.3439 16.5051 17.3496 16.5075 17.3557 16.5102L18.1601 14.6791ZM18.1202 14.6618C17.9331 14.5815 17.7008 14.4929 17.4678 14.4108L16.8031 16.2971C17.0097 16.3699 17.1978 16.4423 17.3312 16.4996L18.1202 14.6618ZM17.4682 14.411C17.2345 14.3285 16.9962 14.2513 16.7967 14.1943L16.2467 16.1172C16.3989 16.1607 16.5979 16.2247 16.8027 16.297L17.4682 14.411ZM16.7963 14.1942C16.6971 14.1658 16.6039 14.1414 16.5241 14.124L16.0975 16.078C16.1206 16.083 16.1695 16.0951 16.2471 16.1173L16.7963 14.1942ZM16.5245 14.1241C16.5265 14.1245 16.5284 14.125 16.5258 14.1244C16.5246 14.1241 16.5186 14.1228 16.5117 14.1213L16.0926 16.0769C16.0884 16.076 16.0852 16.0753 16.0869 16.0756C16.0871 16.0757 16.092 16.0768 16.0971 16.0779L16.5245 14.1241ZM16.0926 14.1213C16.0854 14.1228 16.0794 14.1242 16.0767 14.1248C16.0754 14.1251 16.074 14.1254 16.0736 14.1255C16.073 14.1256 16.073 14.1256 16.0733 14.1256L16.5139 16.0764C16.5156 16.076 16.5172 16.0757 16.518 16.0755C16.5186 16.0754 16.5187 16.0753 16.519 16.0753C16.5192 16.0752 16.5193 16.0752 16.5192 16.0752C16.5192 16.0752 16.5184 16.0754 16.5172 16.0757C16.5161 16.0759 16.5141 16.0764 16.5117 16.0769L16.0926 14.1213ZM16.0803 14.124C16.0003 14.1415 15.907 14.1659 15.8071 14.1945L16.3582 16.1171C16.4352 16.095 16.4839 16.083 16.5069 16.078L16.0803 14.124ZM15.8077 14.1944C15.608 14.2515 15.3697 14.3288 15.1362 14.4111L15.8015 16.2972C16.0068 16.2248 16.2057 16.1607 16.3577 16.1173L15.8077 14.1944ZM15.1361 14.4111C14.9031 14.4933 14.6711 14.5819 14.4842 14.662L15.2724 16.5002C15.4065 16.4427 15.5949 16.3701 15.8016 16.2972L15.1361 14.4111ZM14.4796 14.664C14.4738 14.6665 14.4549 14.6747 14.4472 14.6781L15.2452 16.512C15.2583 16.5063 15.2607 16.5052 15.277 16.4982L14.4796 14.664ZM13.8462 15.595C13.8462 15.703 13.8487 15.8359 13.8517 15.9987L15.8513 15.9618C15.8482 15.7921 15.8462 15.6804 15.8462 15.595H13.8462ZM13.8516 15.9974C13.8526 16.052 13.8535 16.1007 13.8545 16.1603L15.8542 16.1278C15.8533 16.0695 15.8521 16.0093 15.8513 15.9631L13.8516 15.9974ZM13.8545 16.1617C13.8593 16.4298 13.8642 16.7746 13.8642 17.2229H15.8642C15.8642 16.7592 15.8591 16.4019 15.8542 16.1264L13.8545 16.1617ZM13.8642 17.2229C13.8642 18.2475 14.4794 18.9354 15.0593 19.3533L16.2285 17.7306C16.0745 17.6197 15.9816 17.5201 15.9296 17.4388C15.884 17.3674 15.8642 17.3028 15.8642 17.2229H13.8642ZM15.0597 19.3536C15.3492 19.5619 15.6369 19.709 15.8519 19.804L16.6601 17.9745C16.5338 17.9188 16.3755 17.8364 16.228 17.7303L15.0597 19.3536ZM15.8534 19.8047C15.8696 19.8118 15.8909 19.8211 15.9132 19.8305L16.6909 17.9879C16.6836 17.9848 16.6742 17.9807 16.6585 17.9739L15.8534 19.8047Z" fill="white" mask="url(#path-2-inside-1_4986_16981)"/>
<path d="M11.2662 4.53961C9.2945 4.53961 7.69586 6.13824 7.69586 8.10993C7.69586 10.0825 9.29453 11.6811 11.2662 11.6811C13.2387 11.6811 14.8374 10.0824 14.8374 8.10993C14.8374 6.13828 13.2387 4.53961 11.2662 4.53961ZM7.25586 8.10993C7.25586 5.89524 9.05148 4.09961 11.2662 4.09961C13.4816 4.09961 15.2774 5.89522 15.2774 8.10993C15.2774 10.3254 13.4817 12.1211 11.2662 12.1211C9.05147 12.1211 7.25586 10.3254 7.25586 8.10993Z" fill="#142452" stroke="white"/>
</svg>
